<svg xmlns="http://www.w3.org/2000/svg" width="24" height="24" viewBox="0 0 24 24"><g transform="translate(-6.077 -30)"><rect width="24" height="24" rx="2" transform="translate(6.077 30)" fill="#9a9a9a"/><path d="M29.569,0,27.7,0a3.279,3.279,0,0,0-3.454,3.544V5.178H22.371a.294.294,0,0,0-.294.294V7.839a.294.294,0,0,0,.294.294h1.878v5.974a.294.294,0,0,0,.294.294h2.45a.294.294,0,0,0,.294-.294V8.133h2.2a.294.294,0,0,0,.294-.294V5.472a.294.294,0,0,0-.294-.294h-2.2V3.793c0-.666.159-1,1.026-1h1.258a.294.294,0,0,0,.293-.294V.3A.294.294,0,0,0,29.569,0Z" transform="translate(-8 35)" fill="#353535"/></g></svg>