<svg xmlns="http://www.w3.org/2000/svg" width="24" height="24" viewBox="0 0 24 24"><path d="M11.04,8.28c0-1.2-.72-3.6-2.52-3.6-.72,0-1.56.48-1.56,2.04,0,1.44.72,3.48,2.4,3.48A1.834,1.834,0,0,0,11.04,8.28Zm-.72,5.88H9.96a8.874,8.874,0,0,0-2.16.36A2.184,2.184,0,0,0,6,16.56c0,1.32,1.2,2.64,3.6,2.64a2.624,2.624,0,0,0,2.88-2.4C12.48,15.96,11.88,15.36,10.32,14.16ZM21.6,0H2.4A2.407,2.407,0,0,0,0,2.4V21.6A2.407,2.407,0,0,0,2.4,24H21.6A2.407,2.407,0,0,0,24,21.6V2.4A2.407,2.407,0,0,0,21.6,0ZM8.52,20.64c-3.36,0-4.92-1.92-4.92-3.6a3.162,3.162,0,0,1,1.8-2.88,8.022,8.022,0,0,1,3.72-1.08,1.593,1.593,0,0,1-.36-1.2,1.082,1.082,0,0,1,.12-.6H8.4a3.668,3.668,0,0,1-3.84-3.6c0-2.04,1.56-4.32,4.92-4.32h5.04l-.36.36-.84.84-.12.12h-.84a3.62,3.62,0,0,1,1.08,2.64,3.59,3.59,0,0,1-1.92,3.24,1.01,1.01,0,0,0-.48.84.81.81,0,0,0,.48.72,2.621,2.621,0,0,0,.6.36c.96.72,2.28,1.56,2.28,3.48C14.4,18.12,12.84,20.64,8.52,20.64ZM20.4,12H18v2.4H16.8V12H14.4V10.8h2.4V8.4H18v2.4h2.4Z" fill="#fff"/></svg>