<svg xmlns="http://www.w3.org/2000/svg" width="24" height="24" viewBox="0 0 24 24"><path d="M.436,2.184C0,3.04,0,4.16,0,6.4V17.6c0,2.24,0,3.36.436,4.216a4,4,0,0,0,1.748,1.748C3.04,24,4.16,24,6.4,24H17.6c2.24,0,3.36,0,4.216-.436a4,4,0,0,0,1.748-1.748C24,20.96,24,19.84,24,17.6V6.4c0-2.24,0-3.36-.436-4.216A4,4,0,0,0,21.816.436C20.96,0,19.84,0,17.6,0H6.4C4.16,0,3.04,0,2.184.436A4,4,0,0,0,.436,2.184ZM8,5h8a3,3,0,0,1,3,3v8a3,3,0,0,1-3,3H8a3,3,0,0,1-3-3V8A3,3,0,0,1,8,5ZM3,8A5,5,0,0,1,8,3h8a5,5,0,0,1,5,5v8a5,5,0,0,1-5,5H8a5,5,0,0,1-5-5Zm9,7a3,3,0,1,0-3-3A3,3,0,0,0,12,15Zm0,2a5,5,0,1,0-5-5A5,5,0,0,0,12,17Zm5-9a1,1,0,1,0-1-1A1,1,0,0,0,17,8Z" fill="#9a9a9a" fill-rule="evenodd"/></svg>