<svg xmlns="http://www.w3.org/2000/svg" width="20" height="19.453" viewBox="0 0 20 19.453"><g transform="translate(-335.5 -227.689)" fill="#6b3911"><path d="M 345.5000305175781 245.2188415527344 L 344.6457824707031 243.8150939941406 L 344.1576232910156 243.0129241943359 L 344.1576232910156 243.1927947998047 L 344.1576232910156 244.1927947998047 L 343.1576232910156 244.1927947998047 L 337.5000305175781 244.1927947998047 L 336.5000305175781 244.1927947998047 L 336.5000305175781 243.1927947998047 L 336.5000305175781 241.7592163085938 L 336.5000305175781 240.7592163085938 L 337.5000305175781 240.7592163085938 L 337.9215393066406 240.7592163085938 L 341.421630859375 231.9314727783203 L 342.1894226074219 229.9950103759766 L 343.22021484375 231.8051910400391 L 345.5018005371094 235.8118591308594 L 347.7934875488281 231.8036804199219 L 348.8267211914063 229.9966125488281 L 349.5916442871094 231.9325561523438 L 353.0793151855469 240.7592163085938 L 353.5000305175781 240.7592163085938 L 354.5000305175781 240.7592163085938 L 354.5000305175781 241.7592163085938 L 354.5000305175781 243.1927947998047 L 354.5000305175781 244.1927947998047 L 353.5000305175781 244.1927947998047 L 347.8424377441406 244.1927947998047 L 346.8424377441406 244.1927947998047 L 346.8424377441406 243.1927947998047 L 346.8424377441406 243.0129241943359 L 346.3542785644531 243.8150787353516 L 345.5000305175781 245.2188415527344 Z" stroke="none"/><path d="M 345.5000305175781 243.2952270507813 L 347.8680114746094 239.4040222167969 L 348.6872253417969 241.7592163085938 L 347.8424377441406 241.7592163085938 L 347.8424377441406 243.1927947998047 L 353.5000305175781 243.1927947998047 L 353.5000305175781 241.7592163085938 L 352.3992004394531 241.7592163085938 L 348.66162109375 232.3000335693359 L 345.5000305175781 237.8296203613281 L 342.3512268066406 232.3000335693359 L 338.6007995605469 241.7592163085938 L 337.5000305175781 241.7592163085938 L 337.5000305175781 243.1927947998047 L 343.1576232910156 243.1927947998047 L 343.1576232910156 241.7592163085938 L 342.3128051757813 241.7592163085938 L 343.1320190429688 239.4040222167969 L 345.5000305175781 243.2952270507813 M 345.5000305175781 247.1424407958984 L 344.3135681152344 245.1927947998047 L 343.1576232910156 245.1927947998047 L 337.5000305175781 245.1927947998047 L 335.5000305175781 245.1927947998047 L 335.5000305175781 243.1927947998047 L 335.5000305175781 241.7592163085938 L 335.5000305175781 239.7592163085938 L 337.2423095703125 239.7592163085938 L 340.4920349121094 231.5628814697266 L 342.027587890625 227.6899719238281 L 344.0892028808594 231.3103637695313 L 345.5035400390625 233.7940826416016 L 346.9253845214844 231.3073272705078 L 348.9917907714844 227.6931915283203 L 350.5216674804688 231.5650787353516 L 353.7593994140625 239.7592163085938 L 355.5000305175781 239.7592163085938 L 355.5000305175781 241.7592163085938 L 355.5000305175781 243.1927947998047 L 355.5000305175781 245.1927947998047 L 353.5000305175781 245.1927947998047 L 347.8424377441406 245.1927947998047 L 346.6864929199219 245.1927947998047 L 345.5000305175781 247.1424407958984 Z" stroke="none" fill="#fff"/></g></svg>