<svg xmlns="http://www.w3.org/2000/svg" width="27" height="23.5" viewBox="0 0 27 23.5"><g transform="translate(-1071 -19)"><path d="M3,18a3,3,0,0,1-3-3V3.01C0,3,0,2.99,0,2.98A3,3,0,0,1,3,0H19a3,3,0,0,1,3,3V15a3,3,0,0,1-3,3ZM2,15a1,1,0,0,0,1,1H19a1,1,0,0,0,1-1V4.921l-8.427,5.9a1,1,0,0,1-1.147,0L2,4.921ZM11,8.78l8.895-6.226A1,1,0,0,0,19,2H3a1,1,0,0,0-.895.553Z" transform="translate(1071 24.5)" fill="#b3b3b3"/><g transform="translate(1086 21)" fill="#f3701f" stroke="#fff" stroke-width="2"><circle cx="5" cy="5" r="5" stroke="none"/><circle cx="5" cy="5" r="6" fill="none"/></g></g></svg>