<svg xmlns="http://www.w3.org/2000/svg" width="8.75" height="14.002" viewBox="0 0 8.75 14.002"><path d="M4.73,2.61c-.658-.035-1.48-.662-1.48-1.3A1.349,1.349,0,0,1,4.52,0,1.3,1.3,0,0,1,6,1.306a1.164,1.164,0,0,1-1.27,1.3Zm3.083,7.808s.879,2.518.9,2.6A.707.707,0,0,1,8,14a.848.848,0,0,1-.717-.57l-.947-2.449A3.607,3.607,0,0,0,5.563,9.84L3.408,7.834A.543.543,0,0,1,3.254,7.5L3.22,4.62c0-.1-.077-.141-.169-.076l-.863.614a1.055,1.055,0,0,0-.383.63L1.576,7.5a.607.607,0,0,1-.6.568.578.578,0,0,1-.606-.606L.588,5.473a2.174,2.174,0,0,1,.73-1.3A6.135,6.135,0,0,1,3.689,2.895c1-.038,1.791.35,1.791,1.211V7.573a.554.554,0,0,0,.151.348L7.063,9.267a3.445,3.445,0,0,1,.75,1.15ZM.009,13a.751.751,0,0,1,.168-.564l1.752-2.3a9.213,9.213,0,0,0,.552-.836l.565-.99a.147.147,0,0,1,.243-.031l.978.944a.27.27,0,0,1,.044.311l-.292.492a7.1,7.1,0,0,1-.59.823L1.364,13.26a.782.782,0,0,1-.594.276c-.548,0-.694-.213-.761-.537Zm5.807-6.09V5.556c0-.107.07-.142.156-.068L7.512,6.8a.9.9,0,0,1,.282.612c0,.327-.349.71-.678.513-.128-.077-1.126-.709-1.126-.709a.41.41,0,0,1-.174-.311Z" transform="translate(0 0.001)" fill="#b3b3b3" fill-rule="evenodd"/></svg>