<svg xmlns="http://www.w3.org/2000/svg" width="24" height="24" viewBox="0 0 24 24"><path d="M22.471,0H1.533A1.532,1.532,0,0,0,0,1.531V22.469A1.532,1.532,0,0,0,1.533,24H22.469A1.532,1.532,0,0,0,24,22.469V1.531A1.528,1.528,0,0,0,22.471,0ZM19.908,14.624c.439.447,1.39,1.2,1.218,1.961-.159.7-1.206.445-2.222.486a3.365,3.365,0,0,1-2.545-.486,7.733,7.733,0,0,1-.837-.933c-.286-.318-.647-.889-1.138-.867-.882.044-.606,1.274-.92,2.112-4.9.772-6.874-2.258-8.612-5.2A44.546,44.546,0,0,1,2.794,7.216L6.263,7.2S7.376,9.228,7.67,9.75a12.687,12.687,0,0,0,.811,1.192c.239.329.616.972,1.03.92.672-.086.794-2.695.378-3.568-.166-.354-.564-.478-.976-.6.139-.877,3.89-1.06,4.5-.379.881.989-.61,3.743.6,4.546,1.694-.887,3.14-4.6,3.14-4.6l4.061.025a13.014,13.014,0,0,1-1.3,2.9c-.388.522-1.675,1.683-1.624,2.545C18.323,13.412,19.37,14.076,19.908,14.624Z" fill="#9a9a9a"/></svg>