<svg xmlns="http://www.w3.org/2000/svg" xmlns:xlink="http://www.w3.org/1999/xlink" width="20" height="20" viewBox="0 0 20 20"><defs><clipPath id="a"><path d="M10.478,20a.943.943,0,0,1-.927-.721L7.785,12.215.722,10.449A.952.952,0,0,1,.545,8.665L18.636.1a.941.941,0,0,1,1.217.357.929.929,0,0,1,.051.911l-8.57,18.092A.93.93,0,0,1,10.478,20ZM17.042,2.958,3.765,9.247,8.8,10.507a.948.948,0,0,1,.692.692l1.259,5.036Z" transform="translate(0)" fill="#e76016"/></clipPath></defs><path d="M10.478,20a.943.943,0,0,1-.927-.721L7.785,12.215.722,10.449A.952.952,0,0,1,.545,8.665L18.636.1a.941.941,0,0,1,1.217.357.929.929,0,0,1,.051.911l-8.57,18.092A.93.93,0,0,1,10.478,20ZM17.042,2.958,3.765,9.247,8.8,10.507a.948.948,0,0,1,.692.692l1.259,5.036Z" transform="translate(0 0)" fill="#e76016"/><g transform="translate(0 0)" clip-path="url(#a)"><g transform="translate(-0.952 -0.952)"><rect width="22.852" height="22.853" fill="#e76016"/><rect width="21.76" height="21.76" fill="#e76016"/></g></g></svg>