<svg xmlns="http://www.w3.org/2000/svg" width="24" height="24" viewBox="0 0 24 24"><g transform="translate(-1459 -4924)"><path d="M.436,2.184C0,3.04,0,4.16,0,6.4V17.6c0,2.24,0,3.36.436,4.216a4,4,0,0,0,1.748,1.748C3.04,24,4.16,24,6.4,24H17.6c2.24,0,3.36,0,4.216-.436a4,4,0,0,0,1.748-1.748C24,20.96,24,19.84,24,17.6V6.4c0-2.24,0-3.36-.436-4.216A4,4,0,0,0,21.816.436C20.96,0,19.84,0,17.6,0H6.4C4.16,0,3.04,0,2.184.436A4,4,0,0,0,.436,2.184ZM7,4,17,7v3l-6.667,5L17,17v3L7,17V14l6.667-5L7,7Z" transform="translate(1459 4924)" fill="#9a9a9a" fill-rule="evenodd"/></g></svg>