<svg xmlns="http://www.w3.org/2000/svg" xmlns:xlink="http://www.w3.org/1999/xlink" width="14" height="14" viewBox="0 0 14 14"><defs><clipPath id="a"><path d="M12.293,13.707,7,8.414,1.707,13.707A1,1,0,0,1,.293,12.293L5.586,7,.293,1.707A1,1,0,0,1,1.707.293L7,5.586,12.293.293a1,1,0,0,1,1.414,1.415L8.414,7l5.293,5.293a1,1,0,1,1-1.414,1.414Z" transform="translate(5 5)" fill="#b3b3b3"/></clipPath></defs><path d="M12.293,13.707,7,8.414,1.707,13.707A1,1,0,0,1,.293,12.293L5.586,7,.293,1.707A1,1,0,0,1,1.707.293L7,5.586,12.293.293a1,1,0,0,1,1.414,1.415L8.414,7l5.293,5.293a1,1,0,1,1-1.414,1.414Z" transform="translate(0 0)" fill="#b3b3b3"/><g transform="translate(-5 -5)" clip-path="url(#a)"><rect width="24" height="24" fill="#b3b3b3"/><rect width="24" height="24" fill="#b3b3b3"/></g></svg>