<svg xmlns="http://www.w3.org/2000/svg" xmlns:xlink="http://www.w3.org/1999/xlink" width="20" height="20" viewBox="0 0 20 20"><defs><clipPath id="a"><path d="M18.292,19.707l-4.533-4.534a8.509,8.509,0,1,1,1.414-1.414l4.534,4.533a1,1,0,0,1-1.415,1.415ZM2,8.5a6.5,6.5,0,0,0,11.059,4.629l.034-.036.036-.034A6.5,6.5,0,1,0,2,8.5Z" transform="translate(2 2)" fill="#b3b3b3"/></clipPath></defs><g transform="translate(-820 -15.5)"><g transform="translate(820 15.5)"><path d="M18.292,19.707l-4.533-4.534a8.509,8.509,0,1,1,1.414-1.414l4.534,4.533a1,1,0,0,1-1.415,1.415ZM2,8.5a6.5,6.5,0,0,0,11.059,4.629l.034-.036.036-.034A6.5,6.5,0,1,0,2,8.5Z" fill="#b3b3b3"/><g transform="translate(-2 -2)" clip-path="url(#a)"><rect width="24" height="24" fill="#b3b3b3"/><rect width="24" height="24" fill="#b3b3b3"/></g></g></g></svg>